<svg width="24" height="24" viewBox="0 0 16 16" fill="#FF9300" xmlns="http://www.w3.org/2000/svg">
<path d="M14 10.6667H4.66665C4.48984 10.6667 4.32027 10.5964 4.19524 10.4714C4.07022 10.3464 3.99998 10.1768 3.99998 9.99999C3.99998 9.82318 4.07022 9.65361 4.19524 9.52859C4.32027 9.40357 4.48984 9.33333 4.66665 9.33333H11.6266C12.0724 9.33335 12.5054 9.18446 12.8569 8.91028C13.2084 8.6361 13.4582 8.25236 13.5666 7.81999L14.6666 3.49333C14.6916 3.39493 14.6938 3.29214 14.673 3.19278C14.6522 3.09342 14.609 3.00012 14.5466 2.91999C14.4818 2.83782 14.3985 2.77206 14.3036 2.72805C14.2086 2.68404 14.1046 2.66301 14 2.66666H4.50665C4.3691 2.27763 4.1146 1.94066 3.77802 1.70195C3.44145 1.46325 3.03928 1.33449 2.62665 1.33333H1.99998C1.82317 1.33333 1.6536 1.40357 1.52858 1.52859C1.40355 1.65361 1.33331 1.82318 1.33331 1.99999C1.33331 2.17681 1.40355 2.34638 1.52858 2.4714C1.6536 2.59642 1.82317 2.66666 1.99998 2.66666H2.62665C2.77894 2.66222 2.92815 2.71008 3.04945 2.80227C3.17075 2.89446 3.25681 3.02541 3.29331 3.17333L3.33331 3.49333L4.48665 7.99999C3.95621 8.02386 3.45699 8.25747 3.09879 8.64942C2.7406 9.04137 2.55278 9.55956 2.57665 10.09C2.60052 10.6204 2.83412 11.1197 3.22607 11.4778C3.61802 11.836 4.13621 12.0239 4.66665 12H4.78665C4.677 12.3021 4.64177 12.6261 4.68393 12.9447C4.7261 13.2633 4.84441 13.5671 5.02886 13.8302C5.21331 14.0934 5.45846 14.3082 5.74355 14.4566C6.02864 14.6049 6.34528 14.6823 6.66665 14.6823C6.98802 14.6823 7.30465 14.6049 7.58974 14.4566C7.87484 14.3082 8.11999 14.0934 8.30443 13.8302C8.48888 13.5671 8.6072 13.2633 8.64936 12.9447C8.69152 12.6261 8.65629 12.3021 8.54665 12H10.12C10.0103 12.3021 9.9751 12.6261 10.0173 12.9447C10.0594 13.2633 10.1777 13.5671 10.3622 13.8302C10.5466 14.0934 10.7918 14.3082 11.0769 14.4566C11.362 14.6049 11.6786 14.6823 12 14.6823C12.3213 14.6823 12.638 14.6049 12.9231 14.4566C13.2082 14.3082 13.4533 14.0934 13.6378 13.8302C13.8222 13.5671 13.9405 13.2633 13.9827 12.9447C14.0249 12.6261 13.9896 12.3021 13.88 12H14C14.1768 12 14.3464 11.9298 14.4714 11.8047C14.5964 11.6797 14.6666 11.5101 14.6666 11.3333C14.6666 11.1565 14.5964 10.9869 14.4714 10.8619C14.3464 10.7369 14.1768 10.6667 14 10.6667ZM13.1466 3.99999L12.2733 7.49333C12.2368 7.64125 12.1507 7.7722 12.0294 7.86439C11.9081 7.95657 11.7589 8.00443 11.6066 7.99999H5.85331L4.85331 3.99999H13.1466ZM6.66665 13.3333C6.53479 13.3333 6.4059 13.2942 6.29627 13.221C6.18663 13.1477 6.10118 13.0436 6.05073 12.9218C6.00027 12.8 5.98707 12.6659 6.01279 12.5366C6.03851 12.4073 6.10201 12.2885 6.19524 12.1953C6.28848 12.102 6.40727 12.0385 6.53659 12.0128C6.66591 11.9871 6.79995 12.0003 6.92177 12.0507C7.04359 12.1012 7.1477 12.1866 7.22096 12.2963C7.29421 12.4059 7.33331 12.5348 7.33331 12.6667C7.33331 12.8435 7.26307 13.013 7.13805 13.1381C7.01303 13.2631 6.84346 13.3333 6.66665 13.3333ZM12 13.3333C11.8681 13.3333 11.7392 13.2942 11.6296 13.221C11.52 13.1477 11.4345 13.0436 11.3841 12.9218C11.3336 12.8 11.3204 12.6659 11.3461 12.5366C11.3718 12.4073 11.4353 12.2885 11.5286 12.1953C11.6218 12.102 11.7406 12.0385 11.8699 12.0128C11.9992 11.9871 12.1333 12.0003 12.2551 12.0507C12.3769 12.1012 12.481 12.1866 12.5543 12.2963C12.6275 12.4059 12.6666 12.5348 12.6666 12.6667C12.6666 12.8435 12.5964 13.013 12.4714 13.1381C12.3464 13.2631 12.1768 13.3333 12 13.3333Z" fill="#FF9300"/>
</svg>
