<svg width="32" height="32" viewBox="0 0 40 40" fill="none" xmlns="http://www.w3.org/2000/svg">
<path d="M17.3333 28C17.687 28 18.0261 27.8595 18.2761 27.6095C18.5262 27.3594 18.6667 27.0203 18.6667 26.6667V18.6667C18.6667 18.313 18.5262 17.9739 18.2761 17.7239C18.0261 17.4738 17.687 17.3333 17.3333 17.3333C16.9797 17.3333 16.6406 17.4738 16.3905 17.7239C16.1405 17.9739 16 18.313 16 18.6667V26.6667C16 27.0203 16.1405 27.3594 16.3905 27.6095C16.6406 27.8595 16.9797 28 17.3333 28ZM30.6667 12H25.3333V10.6667C25.3333 9.60581 24.9119 8.58839 24.1618 7.83824C23.4116 7.0881 22.3942 6.66667 21.3333 6.66667H18.6667C17.6058 6.66667 16.5884 7.0881 15.8382 7.83824C15.0881 8.58839 14.6667 9.60581 14.6667 10.6667V12H9.33333C8.97971 12 8.64057 12.1405 8.39052 12.3905C8.14048 12.6406 8 12.9797 8 13.3333C8 13.687 8.14048 14.0261 8.39052 14.2761C8.64057 14.5262 8.97971 14.6667 9.33333 14.6667H10.6667V29.3333C10.6667 30.3942 11.0881 31.4116 11.8382 32.1618C12.5884 32.9119 13.6058 33.3333 14.6667 33.3333H25.3333C26.3942 33.3333 27.4116 32.9119 28.1618 32.1618C28.9119 31.4116 29.3333 30.3942 29.3333 29.3333V14.6667H30.6667C31.0203 14.6667 31.3594 14.5262 31.6095 14.2761C31.8595 14.0261 32 13.687 32 13.3333C32 12.9797 31.8595 12.6406 31.6095 12.3905C31.3594 12.1405 31.0203 12 30.6667 12ZM17.3333 10.6667C17.3333 10.313 17.4738 9.97391 17.7239 9.72386C17.9739 9.47381 18.313 9.33334 18.6667 9.33334H21.3333C21.687 9.33334 22.0261 9.47381 22.2761 9.72386C22.5262 9.97391 22.6667 10.313 22.6667 10.6667V12H17.3333V10.6667ZM26.6667 29.3333C26.6667 29.687 26.5262 30.0261 26.2761 30.2761C26.0261 30.5262 25.687 30.6667 25.3333 30.6667H14.6667C14.313 30.6667 13.9739 30.5262 13.7239 30.2761C13.4738 30.0261 13.3333 29.687 13.3333 29.3333V14.6667H26.6667V29.3333ZM22.6667 28C23.0203 28 23.3594 27.8595 23.6095 27.6095C23.8595 27.3594 24 27.0203 24 26.6667V18.6667C24 18.313 23.8595 17.9739 23.6095 17.7239C23.3594 17.4738 23.0203 17.3333 22.6667 17.3333C22.313 17.3333 21.9739 17.4738 21.7239 17.7239C21.4738 17.9739 21.3333 18.313 21.3333 18.6667V26.6667C21.3333 27.0203 21.4738 27.3594 21.7239 27.6095C21.9739 27.8595 22.313 28 22.6667 28Z" fill="#FF4D4D"/>
</svg>
