<svg width="32" height="32" viewBox="0 0 40 40" fill="none" xmlns="http://www.w3.org/2000/svg">
<path d="M32 20C31.6463 20 31.3072 20.1405 31.0571 20.3905C30.8071 20.6406 30.6666 20.9797 30.6666 21.3333V29.3333C30.6666 29.687 30.5262 30.0261 30.2761 30.2761C30.0261 30.5262 29.6869 30.6667 29.3333 30.6667H10.6666C10.313 30.6667 9.97387 30.5262 9.72382 30.2761C9.47377 30.0261 9.33329 29.687 9.33329 29.3333V10.6667C9.33329 10.313 9.47377 9.97391 9.72382 9.72386C9.97387 9.47381 10.313 9.33333 10.6666 9.33333H18.6666C19.0202 9.33333 19.3594 9.19286 19.6094 8.94281C19.8595 8.69276 20 8.35362 20 8C20 7.64638 19.8595 7.30724 19.6094 7.05719C19.3594 6.80714 19.0202 6.66667 18.6666 6.66667H10.6666C9.60576 6.66667 8.58834 7.08809 7.8382 7.83824C7.08805 8.58839 6.66663 9.6058 6.66663 10.6667V29.3333C6.66663 30.3942 7.08805 31.4116 7.8382 32.1618C8.58834 32.9119 9.60576 33.3333 10.6666 33.3333H29.3333C30.3942 33.3333 31.4116 32.9119 32.1617 32.1618C32.9119 31.4116 33.3333 30.3942 33.3333 29.3333V21.3333C33.3333 20.9797 33.1928 20.6406 32.9428 20.3905C32.6927 20.1405 32.3536 20 32 20ZM12 21.0133V26.6667C12 27.0203 12.1404 27.3594 12.3905 27.6095C12.6405 27.8595 12.9797 28 13.3333 28H18.9866C19.1621 28.001 19.3361 27.9674 19.4985 27.901C19.661 27.8347 19.8087 27.7369 19.9333 27.6133L29.16 18.3733L32.9466 14.6667C33.0716 14.5427 33.1708 14.3952 33.2385 14.2328C33.3062 14.0703 33.341 13.896 33.341 13.72C33.341 13.544 33.3062 13.3697 33.2385 13.2072C33.1708 13.0448 33.0716 12.8973 32.9466 12.7733L27.2933 7.05333C27.1693 6.92836 27.0219 6.82917 26.8594 6.76148C26.6969 6.69379 26.5226 6.65894 26.3466 6.65894C26.1706 6.65894 25.9963 6.69379 25.8339 6.76148C25.6714 6.82917 25.5239 6.92836 25.4 7.05333L21.64 10.8267L12.3866 20.0667C12.2631 20.1913 12.1653 20.339 12.0989 20.5015C12.0326 20.6639 11.9989 20.8379 12 21.0133ZM26.3466 9.88L30.12 13.6533L28.2266 15.5467L24.4533 11.7733L26.3466 9.88ZM14.6666 21.56L22.5733 13.6533L26.3466 17.4267L18.44 25.3333H14.6666V21.56Z" fill="#337799"/>
</svg>
