<svg width="24" height="24" viewBox="0 0 24 24" fill="none" xmlns="http://www.w3.org/2000/svg">
<path d="M20.16 5.00001C19.0999 3.93722 17.6948 3.28855 16.1983 3.17118C14.7018 3.05381 13.2127 3.47548 12 4.36001C10.7276 3.41365 9.14396 2.98452 7.56789 3.15905C5.99182 3.33358 4.54041 4.09879 3.50594 5.3006C2.47148 6.5024 1.93079 8.05153 1.99277 9.63603C2.05475 11.2205 2.71479 12.7227 3.83997 13.84L10.05 20.06C10.57 20.5718 11.2704 20.8586 12 20.8586C12.7296 20.8586 13.43 20.5718 13.95 20.06L20.16 13.84C21.3275 12.6653 21.9829 11.0763 21.9829 9.42001C21.9829 7.76374 21.3275 6.17475 20.16 5.00001ZM18.75 12.46L12.54 18.67C12.4693 18.7414 12.3852 18.798 12.2925 18.8367C12.1998 18.8753 12.1004 18.8952 12 18.8952C11.8995 18.8952 11.8001 18.8753 11.7074 18.8367C11.6147 18.798 11.5306 18.7414 11.46 18.67L5.24997 12.43C4.46573 11.6284 4.02658 10.5515 4.02658 9.43001C4.02658 8.30855 4.46573 7.23167 5.24997 6.43001C6.04913 5.641 7.12694 5.19858 8.24997 5.19858C9.373 5.19858 10.4508 5.641 11.25 6.43001C11.3429 6.52374 11.4535 6.59814 11.5754 6.6489C11.6973 6.69967 11.828 6.72581 11.96 6.72581C12.092 6.72581 12.2227 6.69967 12.3445 6.6489C12.4664 6.59814 12.577 6.52374 12.67 6.43001C13.4691 5.641 14.5469 5.19858 15.67 5.19858C16.793 5.19858 17.8708 5.641 18.67 6.43001C19.465 7.22116 19.9186 8.2922 19.9335 9.4137C19.9485 10.5352 19.5236 11.6179 18.75 12.43V12.46Z" fill="#A9AFB2"/>
</svg>
