<svg width="24" height="24" viewBox="0 0 24 24" fill="none" xmlns="http://www.w3.org/2000/svg">
<path d="M20.59 6.9C20.5691 6.86505 20.5457 6.83163 20.52 6.8C19.2266 4.67128 17.1852 3.1019 14.7956 2.39906C12.4059 1.69622 9.83999 1.91051 7.60002 3H7.53002C5.98458 3.79585 4.6733 4.9808 3.72549 6.438C2.77769 7.89519 2.22611 9.57428 2.12516 11.3097C2.0242 13.0451 2.37736 14.7768 3.14981 16.334C3.92225 17.8913 5.08729 19.2203 6.53002 20.19L6.86002 20.39L6.96002 20.46C8.47065 21.4179 10.212 21.95 12 22H12.21C13.9563 21.9615 15.6621 21.4663 17.1576 20.5636C18.653 19.6609 19.8859 18.3822 20.7335 16.8549C21.5811 15.3276 22.0138 13.6049 21.9887 11.8583C21.9635 10.1118 21.4813 8.40226 20.59 6.9V6.9ZM19 8.06C19.2671 8.5226 19.485 9.01195 19.65 9.52C18.6808 9.20475 17.6691 9.0395 16.65 9.03C16.5477 9.01004 16.4424 9.01004 16.34 9.03C15.1114 9.04629 13.8969 9.29394 12.76 9.76C12.0671 9.32576 11.4463 8.78592 10.92 8.16C12.1422 7.44328 13.53 7.05715 14.9468 7.03962C16.3635 7.02208 17.7604 7.37375 19 8.06V8.06ZM12 4C13.405 3.99274 14.7863 4.36223 16 5.07C15.6685 5.02517 15.3345 5.00178 15 5C13.1646 5.00351 11.3656 5.51208 9.80002 6.47C9.50466 5.85334 9.28957 5.20136 9.16002 4.53C10.0662 4.18071 11.0289 4.00105 12 4V4ZM6.00002 6.71C6.39908 6.26646 6.84501 5.86747 7.33002 5.52C7.66392 6.79483 8.24898 7.99017 9.0509 9.03593C9.85282 10.0817 10.8555 10.9568 12 11.61C11.9287 12.6102 11.6674 13.5877 11.23 14.49C9.69801 13.9246 8.37573 12.9038 7.44081 11.5649C6.50589 10.226 6.00311 8.63302 6.00002 7V6.71ZM4.00002 12C4.00181 11.1965 4.12314 10.3978 4.36002 9.63C4.75536 11.0818 5.47324 12.4257 6.46016 13.5616C7.44708 14.6974 8.6776 15.5958 10.06 16.19C9.26412 17.1226 8.26059 17.8556 7.13002 18.33C6.15873 17.5847 5.37145 16.6265 4.8288 15.529C4.28615 14.4316 4.00261 13.2243 4.00002 12V12ZM11.86 20C10.9684 19.9871 10.0856 19.8213 9.25002 19.51C10.5617 18.7015 11.6675 17.5992 12.48 16.29C13.4009 14.8225 13.9246 13.1409 14 11.41C14.5771 11.2203 15.1746 11.0995 15.78 11.05C16.2072 12.7653 16.0543 14.5738 15.3451 16.193C14.6359 17.8122 13.4104 19.1509 11.86 20V20ZM16.08 18.88C17.3291 17.1741 18.0017 15.1143 18 13C17.9956 12.3693 17.9354 11.7401 17.82 11.12C18.572 11.2529 19.3021 11.4884 19.99 11.82V12C19.9891 13.3857 19.6282 14.7474 18.9428 15.9517C18.2574 17.156 17.2709 18.1616 16.08 18.87V18.88Z" fill="#A9AFB2"/>
</svg>
